<?xml version="1.0" encoding="UTF-8" standalone="no"?>
<svg
   xmlns:dc="http://purl.org/dc/elements/1.1/"
   xmlns:cc="http://creativecommons.org/ns#"
   xmlns:rdf="http://www.w3.org/1999/02/22-rdf-syntax-ns#"
   xmlns:svg="http://www.w3.org/2000/svg"
   xmlns="http://www.w3.org/2000/svg"
   xmlns:sodipodi="http://sodipodi.sourceforge.net/DTD/sodipodi-0.dtd"
   xmlns:inkscape="http://www.inkscape.org/namespaces/inkscape"
   width="100mm"
   height="100mm"
   viewBox="0 0 100 100"
   version="1.1"
   id="svg54"
   inkscape:version="1.0 (4035a4fb49, 2020-05-01)"
   sodipodi:docname="playlists.svg"
   inkscape:export-filename="C:\Users\popsch\Desktop\FOOBARzeugs\fbtest\foobar20001\user-components\foo_spider_monkey_panel\samples\TripleQ\Images\inkscape_images\playlists.png"
   inkscape:export-xdpi="96"
   inkscape:export-ydpi="96">
  <defs
     id="defs48" />
  <sodipodi:namedview
     id="base"
     pagecolor="#ffffff"
     bordercolor="#666666"
     borderopacity="1.0"
     inkscape:pageopacity="0.0"
     inkscape:pageshadow="2"
     inkscape:zoom="1.5821168"
     inkscape:cx="197.44779"
     inkscape:cy="188.40853"
     inkscape:document-units="mm"
     inkscape:current-layer="layer1"
     inkscape:document-rotation="0"
     showgrid="true"
     inkscape:showpageshadow="false"
     inkscape:pagecheckerboard="false"
     showborder="true"
     borderlayer="true"
     showguides="false"
     inkscape:guide-bbox="true"
     inkscape:snap-nodes="true"
     inkscape:snap-to-guides="true"
     inkscape:snap-grids="true"
     inkscape:window-width="1920"
     inkscape:window-height="1057"
     inkscape:window-x="-8"
     inkscape:window-y="-8"
     inkscape:window-maximized="1">
    <inkscape:grid
       type="xygrid"
       id="grid56" />
  </sodipodi:namedview>
  <metadata
     id="metadata51">
    <rdf:RDF>
      <cc:Work
         rdf:about="">
        <dc:format>image/svg+xml</dc:format>
        <dc:type
           rdf:resource="http://purl.org/dc/dcmitype/StillImage" />
        <dc:title></dc:title>
      </cc:Work>
    </rdf:RDF>
  </metadata>
  <g
     inkscape:label="Ebene 1"
     inkscape:groupmode="layer"
     id="layer1">
    <path
       d="m 18.406388,27.155714 c 1.381528,-1.201024 2.513397,-2.694457 3.605595,-4.202653 1.243559,-1.717205 1.331467,-1.885174 2.503586,-3.64252 0.642179,-0.962552 1.22115,-1.974033 1.852283,-2.945073 0.180653,-0.277947 0.345314,-0.572958 0.562198,-0.817393 0.09211,-0.103806 0.453346,-0.293887 0.347347,-0.207689 -2.063672,1.678174 -1.902107,0.566596 -1.759815,2.36349 0.163166,2.266056 0.595605,4.552149 1.851726,6.416085 0.325456,0.482941 0.625591,1.048691 1.109118,1.327624 0.531168,0.306419 1.181764,0.223194 1.772645,0.334792 0.701751,-0.235684 1.443707,-0.357531 2.105253,-0.707057 2.840805,-1.500925 6.232768,-3.831859 7.051643,-7.496347 0.110005,-0.492274 0.07669,-1.010455 0.115033,-1.515683 -0.144372,-0.267004 -0.182402,-0.658794 -0.433115,-0.801014 -0.23161,-0.131385 -0.55976,-0.04677 -0.77429,0.116094 -0.882483,0.669945 -1.991431,1.240738 -2.431628,2.31771 -0.314087,0.76843 0.207282,1.683883 0.473008,2.474176 0.887354,2.639087 1.805516,3.611057 3.3482,5.853427 0.793137,0.802409 1.527535,1.681679 2.379408,2.40722 1.842688,1.569423 4.269891,3.033409 6.702502,2.575484 1.710287,-0.321954 2.79084,-1.936479 3.990515,-3.116623 0.198784,-1.033572 0.484359,-1.847814 0.228659,-2.908752 -0.06613,-0.274408 -0.194333,-0.589009 -0.427536,-0.709487 -0.22192,-0.114648 -0.522366,-0.03434 -0.728118,0.112449 -2.669235,1.904327 -2.216417,1.389865 -3.033586,3.740613 -0.08615,0.596611 -0.229256,1.186568 -0.258432,1.789834 -0.09563,1.977261 0.377229,3.4975 2.105911,4.408643 1.765862,0.930745 3.002272,0.732122 4.940327,0.810251 1.007034,-0.147581 2.030145,-0.196109 3.021098,-0.442743 1.945953,-0.484319 3.638779,-1.257533 5.285119,-2.491842 1.132925,-0.84939 2.2953,-1.689982 3.252037,-2.771169 0.870666,-0.983921 1.170741,-2.679118 1.493447,-3.933887 0.04527,-0.532444 0.118274,-1.062905 0.135819,-1.597335 0.01256,-0.382399 -0.02874,-0.764649 -0.04573,-1.14684 -0.0092,-0.207671 -0.05753,-0.416561 -0.03293,-0.622706 0.0056,-0.04636 0.147519,-0.09051 0.114527,-0.06113 -0.534265,0.47593 -1.269051,0.752455 -1.620772,1.402907 -0.126422,0.233798 0.428326,0.270848 0.64249,0.406272 0.344226,0.107209 0.678433,0.266964 1.032677,0.321626 2.404736,0.371071 4.765094,-0.743641 6.937757,-1.71577 1.00383,-0.483727 2.053463,-0.873503 3.16247,-0.878543 0.751779,-0.0034 1.141983,0.132035 1.852416,0.303687 0,0 1.711034,-1.310002 1.711034,-1.310002 v 0 c -0.658753,-0.15544 -1.230957,-0.323474 -1.914724,-0.33773 -1.13532,-0.02367 -2.215031,0.34396 -3.237725,0.855109 -2.094209,0.974144 -4.482464,2.164327 -6.815982,1.803603 -0.326772,-0.05052 -0.633503,-0.20386 -0.950254,-0.305789 -1.20202,-0.89243 -0.504326,-0.624987 -2.835456,0.470044 -0.04187,0.01967 0.01025,0.09984 0.01903,0.149078 0.03364,0.188727 0.08365,0.374125 0.108178,0.564551 0.168852,1.310959 0.101388,1.103763 0.0079,2.60615 -0.770915,3.12776 -0.0031,0.571729 -1.418532,3.774472 -0.11682,0.264325 -0.05376,0.649811 -0.262057,0.833438 -1.361578,1.200327 -3.628606,2.159482 -5.284262,2.581296 -0.968486,0.246744 -1.970903,0.286984 -2.956356,0.430476 -1.879117,-0.09445 -3.020002,0.09101 -4.717143,-0.826492 -1.608273,-0.869454 -2.105369,-2.349932 -1.989319,-4.216621 0.03696,-0.594556 0.198451,-1.171651 0.297674,-1.757478 1.228742,-3.026282 0.804784,-0.80213 -0.423213,-1.403601 -0.203386,-0.09962 0.367115,-0.391524 0.586672,-0.351395 0.218785,0.03999 0.381602,0.308016 0.449487,0.540775 0.28618,0.981213 -0.03332,1.810486 -0.23659,2.753046 0.279171,0.08336 1.006716,-0.0085 0.837515,0.250061 -0.326209,0.498591 -0.970099,0.649256 -1.514136,0.784111 -2.436369,0.603922 -4.939723,-0.750688 -6.82756,-2.307429 -0.855089,-0.705121 -1.583221,-1.580184 -2.374833,-2.370278 -1.474583,-2.221272 -2.423687,-3.222221 -3.132182,-5.882418 -0.208126,-0.781453 0.142482,-1.730309 -0.236564,-2.42937 -0.184884,-0.340978 -0.790853,0.235011 -1.080991,-5.51e-4 -0.299637,-0.243283 1.633603,-0.808901 1.094201,0.24409 -0.02812,0.476353 0.01477,0.964371 -0.08435,1.429057 -0.29183,1.36827 -0.8801,2.365209 -1.750109,3.395388 -0.505283,0.598306 -1.098084,1.099335 -1.663164,1.628653 -0.134431,0.125924 -0.269386,0.26301 -0.433234,0.335077 -0.649778,0.2858 -1.327448,0.48752 -1.991175,0.731281 -0.560219,-0.07666 -1.17467,0.04599 -1.680657,-0.229977 -0.47762,-0.260495 -0.775058,-0.814234 -1.095113,-1.28394 -1.260736,-1.850234 -1.640451,-4.138413 -1.677386,-6.398475 -0.005,-0.355402 0.302092,-1.002111 -0.01502,-1.066206 -0.254399,-0.05142 -1.858463,0.182215 -2.32913,0.874058 -0.169563,0.249244 -0.31352,0.518469 -0.468312,0.779134 -1.293661,2.17849 -0.197168,0.374518 -1.74129,2.88192 -1.904056,2.858589 -3.841036,5.803991 -6.456523,7.928911 0,0 2.052732,-0.896147 2.052732,-0.896147 z"
       id="path1592"
       style="fill:#323232;fill-opacity:1;stroke:#323232;stroke-width:0.881;stroke-linecap:square;stroke-linejoin:round;stroke-miterlimit:4;stroke-dasharray:none;stroke-opacity:1;paint-order:markers fill stroke" />
    <path
       d="m 19.926127,53.461504 c 0.114522,-0.299643 0.203715,-0.612653 0.343565,-0.898932 0.869122,-1.779142 2.148563,-3.28595 3.569095,-4.547606 1.684877,-1.496435 1.11345,-1.643447 2.008889,-1.290632 0.601869,-0.103535 1.198853,-0.370151 1.805605,-0.310605 1.340026,0.131512 2.686335,1.115581 3.691569,1.989886 1.094957,0.952345 2.086452,2.215367 3.023541,3.342439 0.444793,0.534968 0.886719,1.072824 1.330078,1.609238 1.760048,2.080708 3.82982,3.954234 6.513181,4.226185 0.850295,0.08617 1.738694,0.174548 2.560595,-0.08067 1.153701,-0.358244 2.159682,-1.146917 3.239521,-1.720374 1.472691,-1.190788 3.045764,-2.243793 4.418068,-3.572362 1.639008,-1.586773 3.381111,-4.246405 4.400188,-6.39298 0.698605,-1.471538 1.319161,-3.388869 1.418196,-5.091652 0.01789,-0.307676 -0.130173,-0.599676 -0.19526,-0.899515 -0.825881,0.524614 -1.797479,0.837666 -2.477646,1.573845 -0.390297,0.422438 -0.400408,1.124272 -0.550821,1.704019 -0.380873,1.468009 -0.628354,2.995429 -0.741903,4.516784 -0.05077,0.680291 -0.112465,1.367734 -0.05135,2.046993 0.04561,0.506929 0.245388,0.982262 0.368082,1.473391 0.26737,0.284826 0.465352,0.680756 0.802103,0.85448 0.352861,0.182036 0.770639,0.173497 1.159957,0.157718 0.746168,-0.03024 1.525844,-0.384248 2.211848,-0.665522 0.304187,-0.124725 0.596398,-0.287507 0.908122,-0.387071 0.315905,-0.100899 0.645168,-0.141386 0.967749,-0.212079 0.504388,-1e-5 1.009152,-0.02143 1.513166,-3.1e-5 3.104664,0.131792 0.546322,0.207203 4.057599,0.205255 2.101726,-0.0011 4.182646,-0.194639 6.271057,-0.426779 1.439546,-0.214534 1.289052,-0.170766 2.595764,-0.437101 0.684138,-0.139441 1.107473,-0.286828 1.806425,-0.283156 1.014535,0.0054 1.349852,0.166407 2.377916,0.43044 1.466138,0.506391 2.888397,1.153911 4.291125,1.841426 0.355942,0.174459 0.713902,0.34512 1.060799,0.540471 0.229162,0.129049 0.44357,0.287724 0.665354,0.431586 0,0 1.758053,-1.266922 1.758053,-1.266922 v 0 C 85.06285,50.8435 82.971605,50.013753 80.914106,49.127105 c -0.938813,-0.288936 -1.397654,-0.504031 -2.348386,-0.54366 -0.766102,-0.03193 -1.116387,0.12293 -1.863185,0.298065 -1.448644,0.339728 -1.080772,0.249988 -2.692277,0.538153 -2.100162,0.275735 -4.190046,0.514902 -6.309564,0.494597 -2.070673,-0.01983 -2.018192,-0.12352 -3.944664,-0.29625 -0.486265,-0.0436 -0.973867,-0.06663 -1.460803,-0.09994 -0.330307,0.05845 -0.668389,0.07744 -0.99092,0.175347 -0.320169,0.09719 -0.616642,0.27202 -0.925534,0.406451 -0.709582,0.308805 -1.387672,0.656125 -2.159986,0.746161 -0.357577,0.04168 -0.740769,0.09518 -1.078032,-0.04227 -0.321333,-0.130961 -0.52886,-0.480266 -0.793291,-0.720401 -0.14126,-0.454689 -0.36635,-0.887636 -0.423778,-1.364071 -0.07975,-0.661641 -0.02847,-1.336787 0.01801,-2.002272 0.103278,-1.478793 0.373337,-3.108069 0.836175,-4.504974 0.194854,-0.588097 0.997562,-1.127864 0.745532,-1.688936 -0.202301,-0.450362 -0.873529,0.287774 -1.310291,0.431659 0.627373,1.159785 0.59382,0.779656 0.09145,2.819185 -1.116428,4.532491 -3.988172,7.860982 -7.062191,10.92354 -1.01497,0.551674 -1.956448,1.313776 -3.044911,1.655024 -0.792364,0.248415 -1.650189,0.158272 -2.470422,0.07411 -2.635896,-0.270487 -4.668599,-2.13555 -6.430142,-4.141762 -0.45176,-0.53078 -0.904994,-1.060037 -1.35528,-1.592335 -1.002462,-1.185044 -1.903213,-2.35165 -3.052429,-3.376665 -0.974037,-0.868766 -2.404245,-1.982944 -3.719566,-2.154318 -0.621705,-0.08101 -1.240353,0.188344 -1.860529,0.282515 -1.131915,0.643705 -2.296864,1.221237 -3.395744,1.931116 -0.625536,0.4041 -1.203024,0.896415 -1.764343,1.402313 -1.729527,1.558762 -3.286438,3.440804 -4.186928,5.715649 0,0 1.964053,-1.031622 1.964053,-1.031622 z"
       id="path1594"
       style="fill:#323232;fill-opacity:1;stroke:#323232;stroke-width:0.881;stroke-linecap:square;stroke-linejoin:round;stroke-miterlimit:4;stroke-dasharray:none;stroke-opacity:1;paint-order:markers fill stroke" />
    <path
       d="m 21.851955,69.935947 c -0.101955,0.159829 -0.225928,0.305092 -0.305864,0.479486 -0.379642,0.828246 -0.663259,1.835304 -0.707384,2.754993 -0.03613,0.752936 -0.09982,1.54372 0.118721,2.258175 0.285606,0.933692 0.757404,1.81735 1.352746,2.552283 0.676214,0.834774 1.596628,1.382769 2.394942,2.074155 1.053453,0.38991 2.065601,0.95953 3.160358,1.169735 5.166501,0.992024 10.346399,-1.548122 14.270447,-5.077075 0.648323,-0.583046 1.092536,-1.397317 1.638803,-2.095976 0.241046,-0.648613 0.598499,-1.2585 0.723141,-1.945845 0.254459,-1.40322 -0.414638,-2.993751 -1.870628,-3.001721 -1.326786,-0.0072 -3.363184,2.002263 -3.948497,2.444462 -0.18899,0.448894 -0.49236,0.858674 -0.566972,1.346685 -0.311676,2.038538 1.470375,3.359599 2.97576,3.890418 0.88967,0.313708 1.824482,0.488628 2.756606,0.555025 1.150185,0.08193 2.304167,-0.07498 3.456248,-0.112468 1.258812,-0.265845 2.546571,-0.399749 3.776434,-0.797541 2.63924,-0.853646 5.063487,-2.453623 7.258871,-4.232814 1.187126,-0.962076 2.251007,-2.552772 3.15148,-3.859282 0.112329,-0.083 0.444867,-0.33887 0.336984,-0.248989 -0.515954,0.429869 -1.236874,0.652712 -1.561615,1.269291 -0.129592,0.246052 0.457182,0.265646 0.695012,0.37611 1.09201,0.507202 1.861162,0.781755 3.082268,1.009024 0.822351,0.153055 1.656978,0.210779 2.485466,0.316168 4.680577,0.286135 9.36277,-0.15739 14.002913,-0.807814 0,0 1.588473,-1.310766 1.588473,-1.310766 v 0 c -4.671185,0.814383 -9.406107,1.394489 -14.139827,0.986642 -1.910085,-0.295701 -2.410029,-0.255205 -4.121611,-0.904848 -0.390958,-0.14839 -0.765506,-0.347624 -1.133507,-0.555456 -0.227719,-0.128607 -0.396689,-0.496425 -0.649265,-0.451383 -1.767261,0.31516 -1.795611,0.423668 -2.50818,1.242227 -0.873552,1.471577 -1.554319,2.374212 -2.777472,3.607491 -0.359229,0.362205 -0.71171,0.75437 -1.14443,1.000238 -3.208134,1.822824 -3.512053,1.589705 -7.05448,2.325341 -1.11044,0.02072 -2.224256,0.159727 -3.331323,0.06214 -0.887581,-0.07824 -1.775756,-0.267147 -2.617722,-0.586537 -1.352188,-0.512935 -3.062581,-1.81223 -2.706822,-3.682019 0.08837,-0.464409 0.396164,-0.842557 0.594248,-1.263833 -0.235451,0.04155 -0.89693,0.28267 -0.706351,0.124675 0.920731,-0.763322 2.375668,-0.600865 2.827034,0.701461 0.45714,1.318986 -0.0782,2.032097 -0.509822,3.26812 -0.282075,0.365633 -1.923954,2.657482 -2.616838,3.093366 -3.083065,1.939519 -6.767277,3.003188 -10.319042,2.317053 C 28.132973,80.01997 27.146891,79.458818 26.119707,79.075055 25.353108,78.391197 24.456275,77.853988 23.819909,77.02348 23.261737,76.295022 22.844306,75.410934 22.609,74.493309 c -0.185299,-0.72262 -0.09172,-1.506525 -0.01557,-2.252757 0.09634,-0.944078 0.448461,-1.955274 0.930799,-2.751571 0.104131,-0.171909 0.261896,-0.295907 0.392844,-0.44386 0,0 -2.065117,0.890825 -2.065117,0.890825 z"
       id="path1596"
       style="fill:#323232;fill-opacity:1;stroke:#323232;stroke-width:0.881;stroke-linecap:square;stroke-linejoin:round;stroke-miterlimit:4;stroke-dasharray:none;stroke-opacity:1;paint-order:markers fill stroke" />
  </g>
</svg>
