<?xml version="1.0" encoding="UTF-8" standalone="no"?>
<svg
   xmlns:dc="http://purl.org/dc/elements/1.1/"
   xmlns:cc="http://creativecommons.org/ns#"
   xmlns:rdf="http://www.w3.org/1999/02/22-rdf-syntax-ns#"
   xmlns:svg="http://www.w3.org/2000/svg"
   xmlns="http://www.w3.org/2000/svg"
   xmlns:sodipodi="http://sodipodi.sourceforge.net/DTD/sodipodi-0.dtd"
   xmlns:inkscape="http://www.inkscape.org/namespaces/inkscape"
   inkscape:export-ydpi="96"
   inkscape:export-xdpi="96"
   inkscape:export-filename="C:\Users\popsch\Desktop\FOOBARzeugs\fbtest\foobar20001\user-components\foo_spider_monkey_panel\samples\TripleQ\Images\inkscape_images\move_to_unsorted_music_sel.png"
   sodipodi:docname="replaygain_tracks.svg"
   inkscape:version="1.0 (4035a4fb49, 2020-05-01)"
   id="svg54"
   version="1.1"
   viewBox="0 0 100 100"
   height="100mm"
   width="100mm">
  <defs
     id="defs48" />
  <sodipodi:namedview
     inkscape:window-maximized="1"
     inkscape:window-y="-8"
     inkscape:window-x="-8"
     inkscape:window-height="1057"
     inkscape:window-width="1920"
     inkscape:snap-grids="true"
     inkscape:snap-to-guides="true"
     inkscape:snap-nodes="true"
     inkscape:guide-bbox="true"
     showguides="false"
     borderlayer="true"
     showborder="true"
     inkscape:pagecheckerboard="false"
     inkscape:showpageshadow="false"
     showgrid="true"
     inkscape:document-rotation="0"
     inkscape:current-layer="layer1"
     inkscape:document-units="mm"
     inkscape:cy="187.04314"
     inkscape:cx="160.25425"
     inkscape:zoom="1.5821168"
     inkscape:pageshadow="2"
     inkscape:pageopacity="0.0"
     borderopacity="1.0"
     bordercolor="#666666"
     pagecolor="#ffffff"
     id="base">
    <inkscape:grid
       id="grid56"
       type="xygrid" />
  </sodipodi:namedview>
  <metadata
     id="metadata51">
    <rdf:RDF>
      <cc:Work
         rdf:about="">
        <dc:format>image/svg+xml</dc:format>
        <dc:type
           rdf:resource="http://purl.org/dc/dcmitype/StillImage" />
        <dc:title />
      </cc:Work>
    </rdf:RDF>
  </metadata>
  <g
     id="layer1"
     inkscape:groupmode="layer"
     inkscape:label="Ebene 1">
    <path
       style="fill:#ffffff;fill-opacity:1;stroke:#000000;stroke-width:3.865;stroke-linecap:butt;stroke-linejoin:round;stroke-miterlimit:4;stroke-dasharray:none;stroke-opacity:1;paint-order:normal"
       d="m 10,63.541665 v 0 c 0.0267,0.0267 0.0534,0.0534 0.0801,0.0802 0.0267,0.0268 0.0534,0.0536 0.0801,0.0805 0.0267,0.0268 0.0533,0.0536 0.08,0.0805 0.0267,0.0268 0.0534,0.0537 0.0801,0.0805 0.0267,0.0268 0.0534,0.0536 0.0801,0.0804 0.0267,0.0267 0.0534,0.0534 0.0801,0.0801 0.0267,0.0266 0.0534,0.0532 0.0801,0.0797 0.0267,0.0266 0.0533,0.053 0.08,0.0793 0.0267,0.0264 0.0534,0.0526 0.0801,0.0787 0.0267,0.0261 0.0534,0.0521 0.0801,0.078 0.0267,0.0259 0.0534,0.0516 0.0801,0.0772 0.0267,0.0255 0.0534,0.051 0.0801,0.0762 0.0267,0.0253 0.0533,0.0503 0.08,0.0752 0.0267,0.0249 0.0534,0.0496 0.0801,0.074 0.0267,0.0245 0.0534,0.0488 0.0801,0.0728 0.0267,0.024 0.0534,0.0478 0.0801,0.0714 0.0267,0.0236 0.0534,0.0469 0.0801,0.0699 0.0267,0.0231 0.0533,0.0459 0.08,0.0684 0.0267,0.0225 0.0534,0.0447 0.0801,0.0666 0.0267,0.0219 0.0534,0.0436 0.0801,0.0649 0.0267,0.0213 0.0534,0.0423 0.0801,0.0629 0.0267,0.0207 0.0534,0.041 0.0801,0.061 0.0267,0.02 0.0533,0.0396 0.08,0.0589 0.0267,0.0193 0.0534,0.0382 0.0801,0.0567 0.0267,0.0186 0.0534,0.0367 0.0801,0.0545 0.0267,0.0177 0.0534,0.0351 0.0801,0.0521 0.0267,0.017 0.0534,0.0335 0.0801,0.0497 0.0267,0.0161 0.0533,0.0318 0.08,0.0471 0.0267,0.0153 0.0534,0.0302 0.0801,0.0446 0.0267,0.0144 0.0534,0.0284 0.0801,0.0419 0.0267,0.0135 0.0534,0.0266 0.0801,0.0391 0.0267,0.0126 0.0534,0.0248 0.0801,0.0364 0.0267,0.0116 0.0533,0.0228 0.08,0.0335 0.0267,0.0107 0.0534,0.0209 0.0801,0.0305 0.0267,0.0097 0.0534,0.0189 0.0801,0.0276 0.0267,0.0087 0.0534,0.0169 0.0801,0.0246 0.0267,0.0076 0.0534,0.0148 0.0801,0.0214 0.0267,0.0066 0.0533,0.0128 0.08,0.0183 0.0267,0.0056 0.0534,0.0107 0.0801,0.0152 0.0267,0.0045 0.0534,0.0085 0.0801,0.012 0.0267,0.0034 0.0534,0.0063 0.0801,0.0087 0.0267,0.0023 0.0534,0.0042 0.0801,0.0054 0.0267,0.0013 0.0534,0.002 0.08,0.0022 0.0267,2e-4 0.0534,-2e-4 0.0801,-0.0011 0.0267,-9e-4 0.0534,-0.0024 0.0801,-0.0044 0.0267,-0.002 0.0534,-0.0046 0.0801,-0.0078 0.0267,-0.0031 0.0534,-0.0068 0.0801,-0.011 0.0267,-0.0043 0.0534,-0.0091 0.08,-0.0144 0.0267,-0.0054 0.0534,-0.0113 0.0801,-0.0178 0.0267,-0.0064 0.0534,-0.0134 0.0801,-0.021 0.0267,-0.0075 0.0534,-0.0156 0.0801,-0.0243 0.0267,-0.0086 0.0534,-0.0178 0.0801,-0.0276 0.0267,-0.0097 0.0534,-0.02 0.08,-0.0308 0.0267,-0.0108 0.0534,-0.0222 0.0801,-0.0341 0.0267,-0.0119 0.0534,-0.0243 0.0801,-0.0372 0.0267,-0.013 0.0534,-0.0264 0.0801,-0.0404 0.0267,-0.014 0.0534,-0.0285 0.0801,-0.0435 0.0267,-0.015 0.0534,-0.0305 0.08,-0.0465 0.0267,-0.0161 0.0534,-0.0326 0.0801,-0.0496 0.0267,-0.017 0.0534,-0.0345 0.0801,-0.0525 0.0267,-0.018 0.0534,-0.0364 0.0801,-0.0554 0.0267,-0.0189 0.0534,-0.0383 0.0801,-0.0582 0.0267,-0.0198 0.0534,-0.0402 0.08,-0.0609 0.0267,-0.0208 0.0534,-0.042 0.0801,-0.0637 0.0267,-0.0216 0.0534,-0.0437 0.0801,-0.0662 0.0267,-0.0225 0.0534,-0.0454 0.0801,-0.0688 0.0267,-0.0233 0.0534,-0.047 0.0801,-0.0711 0.0267,-0.0242 0.0534,-0.0487 0.08,-0.0736 0.0267,-0.0249 0.0534,-0.0501 0.0801,-0.0758 0.0267,-0.0256 0.0534,-0.0516 0.0801,-0.0779 0.0267,-0.0263 0.0534,-0.053 0.0801,-0.08 0.0267,-0.027 0.0534,-0.0543 0.0801,-0.0819 0.0267,-0.0276 0.0534,-0.0556 0.08,-0.0838 0.0267,-0.0282 0.0534,-0.0567 0.0801,-0.0855 0.0267,-0.0288 0.0534,-0.0578 0.0801,-0.0871 0.0267,-0.0293 0.0534,-0.0589 0.0801,-0.0886 0.0267,-0.0298 0.0534,-0.0598 0.0801,-0.0901 0.0267,-0.0302 0.0534,-0.0606 0.08,-0.0912 0.0267,-0.0307 0.0534,-0.0615 0.0801,-0.0925 0.0267,-0.0309 0.0534,-0.0621 0.0801,-0.0934 0.0267,-0.0313 0.0534,-0.0627 0.0801,-0.0943 0.0267,-0.0316 0.0534,-0.0633 0.0801,-0.0951 0.0267,-0.0318 0.0534,-0.0637 0.08,-0.0957 0.0267,-0.032 0.0534,-0.0641 0.0801,-0.0962 0.0267,-0.0321 0.0534,-0.0643 0.0801,-0.0966 0.0267,-0.0322 0.0534,-0.0645 0.0801,-0.0967 0.0267,-0.0323 0.0534,-0.0646 0.0801,-0.0969 0.0267,-0.0323 0.0534,-0.0646 0.08,-0.0969 0.0267,-0.0322 0.0534,-0.0644 0.0801,-0.0966 0.0267,-0.0322 0.0534,-0.0643 0.0801,-0.0963 0.0267,-0.0321 0.0534,-0.064 0.0801,-0.0959 0.0267,-0.0319 0.0534,-0.0636 0.0801,-0.0953 0.0267,-0.0316 0.0534,-0.0631 0.08,-0.0945 0.0267,-0.0314 0.0534,-0.0626 0.0801,-0.0937 0.0267,-0.031 0.0534,-0.0619 0.0801,-0.0926 0.0267,-0.0307 0.0534,-0.0612 0.0801,-0.0915 0.0267,-0.0303 0.0534,-0.0604 0.0801,-0.0903 0.0267,-0.0298 0.0534,-0.0594 0.08,-0.0888 0.0267,-0.0293 0.0534,-0.0584 0.0801,-0.0872 0.0267,-0.0289 0.0534,-0.0574 0.0801,-0.0856 0.0267,-0.0283 0.0534,-0.0562 0.0801,-0.0838 0.0267,-0.0276 0.0534,-0.0549 0.0801,-0.0818 0.0267,-0.027 0.0534,-0.0536 0.08,-0.0798 0.0267,-0.0263 0.0534,-0.0521 0.0801,-0.0776 0.0267,-0.0255 0.0534,-0.0506 0.0801,-0.0753 0.0267,-0.0247 0.0534,-0.049 0.0801,-0.0729 0.0267,-0.0239 0.0534,-0.0473 0.0801,-0.0703 0.0267,-0.023 0.0534,-0.0456 0.08,-0.0677 0.0267,-0.0221 0.0534,-0.0437 0.0801,-0.0649 0.0267,-0.0212 0.0534,-0.0419 0.0801,-0.0621 0.0267,-0.0202 0.0534,-0.0399 0.0801,-0.059 0.0267,-0.0192 0.0534,-0.0379 0.0801,-0.056 0.0267,-0.0182 0.0534,-0.0358 0.08,-0.0529 0.0267,-0.0171 0.0534,-0.0336 0.0801,-0.0496 0.0267,-0.016 0.0534,-0.0314 0.0801,-0.0462 0.0267,-0.0149 0.0534,-0.0292 0.0801,-0.0429 0.0267,-0.0137 0.0534,-0.0268 0.0801,-0.0393 0.0267,-0.0125 0.0534,-0.0244 0.08,-0.0357 0.0267,-0.0114 0.0534,-0.0221 0.0801,-0.0322 0.0267,-0.01 0.0534,-0.0195 0.0801,-0.0283 0.0267,-0.0089 0.0534,-0.0171 0.0801,-0.0247 0.0267,-0.0075 0.0534,-0.0145 0.0801,-0.0208 0.0267,-0.0063 0.0534,-0.0119 0.08,-0.0169 0.0267,-0.005 0.0534,-0.0093 0.0801,-0.013 0.0267,-0.0037 0.0534,-0.0067 0.0801,-0.009 0.0267,-0.0024 0.0534,-0.0041 0.0801,-0.0051 0.0267,-0.001 0.0534,-0.0013 0.0801,-0.001 0.0267,3e-4 0.0534,0.0013 0.0801,0.003 0.0266,0.0017 0.0533,0.004 0.08,0.0071 0.0267,0.003 0.0534,0.0067 0.0801,0.0111 0.0267,0.0044 0.0534,0.0095 0.0801,0.0152 0.0267,0.0058 0.0534,0.0122 0.0801,0.0194 0.0267,0.0071 0.0534,0.0149 0.0801,0.0233 0.0266,0.0085 0.0533,0.0177 0.08,0.0275 0.0267,0.0098 0.0534,0.0203 0.0801,0.0315 0.0267,0.0112 0.0534,0.023 0.0801,0.0355 0.0267,0.0125 0.0534,0.0257 0.0801,0.0395 0.0267,0.0139 0.0534,0.0284 0.0801,0.0435 0.0266,0.0152 0.0533,0.031 0.08,0.0474 0.0267,0.0165 0.0534,0.0336 0.0801,0.0513 0.0267,0.0178 0.0534,0.0361 0.0801,0.0551 0.0267,0.019 0.0534,0.0387 0.0801,0.0589 0.0267,0.0203 0.0534,0.0411 0.0801,0.0626 0.0266,0.0215 0.0533,0.0436 0.08,0.0663 0.0267,0.0226 0.0534,0.0459 0.0801,0.0698 0.0267,0.0238 0.0534,0.0483 0.0801,0.0733 0.0267,0.025 0.0534,0.0506 0.0801,0.0767 0.0267,0.0261 0.0534,0.0528 0.0801,0.08 0.0266,0.0273 0.0533,0.055 0.08,0.0833 0.0267,0.0283 0.0534,0.0571 0.0801,0.0864 0.0267,0.0293 0.0534,0.0591 0.0801,0.0894 0.0267,0.0303 0.0534,0.061 0.0801,0.0923 0.0267,0.0312 0.0534,0.0629 0.0801,0.0951 0.0266,0.0322 0.0533,0.0648 0.08,0.0978 0.0267,0.033 0.0534,0.0665 0.0801,0.1004 0.0267,0.0338 0.0534,0.0681 0.0801,0.1027 0.0267,0.0347 0.0534,0.0697 0.0801,0.1051 0.0267,0.0354 0.0534,0.0712 0.0801,0.1073 0.0266,0.0361 0.0533,0.0725 0.08,0.1093 0.0267,0.0367 0.0534,0.0738 0.0801,0.1111 0.0267,0.0374 0.0534,0.075 0.0801,0.1129 0.0267,0.0379 0.0534,0.0761 0.0801,0.1145 0.0267,0.0384 0.0534,0.0771 0.0801,0.116 0.0266,0.0388 0.0533,0.0779 0.08,0.1172 0.0267,0.0392 0.0534,0.0787 0.0801,0.1183 0.0267,0.0396 0.0534,0.0794 0.0801,0.1193 0.0267,0.0399 0.0534,0.08 0.0801,0.1201 0.0267,0.0402 0.0534,0.0805 0.0801,0.1208 0.0266,0.0403 0.0533,0.0808 0.08,0.1212 0.0267,0.0405 0.0534,0.081 0.0801,0.1216 0.0267,0.0405 0.0534,0.0811 0.0801,0.1216 0.0267,0.0406 0.0534,0.0811 0.0801,0.1216 0.0267,0.0406 0.0534,0.081 0.0801,0.1215 0.0266,0.0404 0.0533,0.0807 0.08,0.121 0.0267,0.0403 0.0534,0.0804 0.0801,0.1205 0.0267,0.04 0.0534,0.08 0.0801,0.1198 0.0267,0.0397 0.0534,0.0794 0.0801,0.1188 0.0267,0.0395 0.0534,0.0787 0.0801,0.1178 0.0266,0.0391 0.0533,0.0779 0.08,0.1165 0.0267,0.0387 0.0534,0.0771 0.0801,0.1152 0.0267,0.0381 0.0534,0.076 0.0801,0.1135 0.0267,0.0376 0.0534,0.0748 0.0801,0.1118 0.0267,0.0369 0.0534,0.0736 0.0801,0.1098 0.0266,0.0363 0.0533,0.0723 0.08,0.1078 0.0267,0.0356 0.0534,0.0707 0.0801,0.1055 0.0267,0.0348 0.0534,0.0692 0.0801,0.1031 0.0267,0.0339 0.0534,0.0674 0.0801,0.1005 0.0267,0.033 0.0534,0.0656 0.0801,0.0978 0.0266,0.0321 0.0533,0.0637 0.08,0.0948 0.0267,0.0311 0.0534,0.0617 0.0801,0.0918 0.0267,0.0301 0.0534,0.0597 0.0801,0.0886 0.0267,0.029 0.0534,0.0575 0.0801,0.0853 0.0267,0.0279 0.0534,0.0551 0.0801,0.0818 0.0266,0.0267 0.0533,0.0527 0.08,0.0782 0.0267,0.0254 0.0534,0.0502 0.0801,0.0744 0.0267,0.0242 0.0534,0.0477 0.0801,0.0705 0.0267,0.0229 0.0534,0.0451 0.0801,0.0666 0.0267,0.0214 0.0534,0.0422 0.0801,0.0623 0.0266,0.0201 0.0533,0.0395 0.08,0.0582 0.0267,0.0187 0.0534,0.0366 0.0801,0.0538 0.0267,0.0172 0.0534,0.0336 0.0801,0.0493 0.0267,0.0157 0.0534,0.0306 0.0801,0.0448 0.0267,0.0141 0.0534,0.0275 0.0801,0.0401 0.0266,0.0126 0.0533,0.0244 0.08,0.0354 0.0267,0.011 0.0534,0.0212 0.0801,0.0305 0.0267,0.0094 0.0534,0.018 0.0801,0.0257 0.0267,0.0077 0.0534,0.0146 0.0801,0.0207 0.0267,0.006 0.0534,0.0113 0.0801,0.0156 0.0267,0.0044 0.0533,0.0079 0.08,0.0106 0.0267,0.0027 0.0534,0.0045 0.0801,0.0054 0.0267,10e-4 0.0534,0.0011 0.0801,3e-4 0.0267,-8e-4 0.0534,-0.0025 0.0801,-0.005 0.0267,-0.0025 0.0534,-0.0059 0.0801,-0.0102 0.0267,-0.0043 0.0533,-0.0094 0.08,-0.0155 0.0267,-0.006 0.0534,-0.0129 0.0801,-0.0208 0.0267,-0.0078 0.0534,-0.0164 0.0801,-0.026 0.0267,-0.0096 0.0534,-0.02 0.0801,-0.0314 0.0267,-0.0113 0.0534,-0.0235 0.0801,-0.0366 0.0267,-0.0131 0.0533,-0.0271 0.08,-0.0419 0.0267,-0.0149 0.0534,-0.0306 0.0801,-0.0472 0.0267,-0.0166 0.0534,-0.034 0.0801,-0.0524 0.0267,-0.0183 0.0534,-0.0375 0.0801,-0.0575 0.0267,-0.0201 0.0534,-0.041 0.0801,-0.0627 0.0267,-0.0218 0.0533,-0.0444 0.08,-0.0679 0.0267,-0.0234 0.0534,-0.0477 0.0801,-0.0728 0.0267,-0.0251 0.0534,-0.051 0.0801,-0.0778 0.0267,-0.0268 0.0534,-0.0543 0.0801,-0.0827 0.0267,-0.0284 0.0534,-0.0576 0.0801,-0.0875 0.0267,-0.03 0.0533,-0.0608 0.08,-0.0923 0.0267,-0.0315 0.0534,-0.0638 0.0801,-0.0969 0.0267,-0.033 0.0534,-0.0669 0.0801,-0.1014 0.0267,-0.0346 0.0534,-0.0699 0.0801,-0.1059 0.0267,-0.036 0.0534,-0.0727 0.0801,-0.1101 0.0267,-0.0375 0.0533,-0.0756 0.08,-0.1144 0.0267,-0.0388 0.0534,-0.0783 0.0801,-0.1184 0.0267,-0.0401 0.0534,-0.0809 0.0801,-0.1223 0.0267,-0.0414 0.0534,-0.0835 0.0801,-0.1261 0.0267,-0.0427 0.0534,-0.086 0.0801,-0.1298 0.0267,-0.0438 0.0533,-0.0883 0.08,-0.1332 0.0267,-0.045 0.0534,-0.0905 0.0801,-0.1366 0.0267,-0.046 0.0534,-0.0926 0.0801,-0.1397 0.0267,-0.0471 0.0534,-0.0947 0.0801,-0.1427 0.0267,-0.048 0.0534,-0.0966 0.0801,-0.1455 0.0267,-0.049 0.0533,-0.0984 0.08,-0.1482 0.0267,-0.0497 0.0534,-0.1 0.0801,-0.1505 0.0267,-0.0506 0.0534,-0.1016 0.0801,-0.1529 0.0267,-0.0513 0.0534,-0.1029 0.0801,-0.1548 0.0267,-0.052 0.0534,-0.1042 0.0801,-0.1568 0.0267,-0.0525 0.0533,-0.1053 0.08,-0.1584 0.0267,-0.053 0.0534,-0.1063 0.0801,-0.1598 0.0267,-0.0535 0.0534,-0.1072 0.0801,-0.161 0.0267,-0.0539 0.0534,-0.1079 0.0801,-0.1621 0.0267,-0.0542 0.0534,-0.1085 0.0801,-0.1629 0.0267,-0.0544 0.0533,-0.1088 0.08,-0.1634 0.0267,-0.0545 0.0534,-0.1092 0.0801,-0.1638 0.0267,-0.0546 0.0534,-0.1093 0.0801,-0.1639 0.0267,-0.0546 0.0534,-0.1093 0.0801,-0.1638 0.0267,-0.0546 0.0534,-0.1091 0.0801,-0.1635 0.0267,-0.0544 0.0533,-0.1087 0.08,-0.1629 0.0267,-0.0542 0.0534,-0.1082 0.0801,-0.1621 0.0267,-0.0539 0.0534,-0.1076 0.0801,-0.1611 0.0267,-0.0535 0.0534,-0.1068 0.0801,-0.1599 0.0267,-0.053 0.0534,-0.1058 0.0801,-0.1583 0.0267,-0.0525 0.0533,-0.1047 0.08,-0.1566 0.0267,-0.0519 0.0534,-0.1035 0.0801,-0.1547 0.0267,-0.0512 0.0534,-0.102 0.0801,-0.1524 0.0267,-0.0504 0.0534,-0.1005 0.0801,-0.15 0.0267,-0.0496 0.0534,-0.0988 0.0801,-0.1474 0.0267,-0.0487 0.0533,-0.0969 0.08,-0.1445 0.0267,-0.0477 0.0534,-0.0948 0.0801,-0.1414 0.0267,-0.0466 0.0534,-0.0926 0.0801,-0.1381 0.0267,-0.0454 0.0534,-0.0902 0.0801,-0.1344 0.0267,-0.0443 0.0534,-0.0879 0.0801,-0.1308 0.0267,-0.0429 0.0533,-0.0852 0.08,-0.1267 0.0267,-0.0416 0.0534,-0.0824 0.0801,-0.1226 0.0267,-0.0401 0.0534,-0.0795 0.0801,-0.1181 0.0267,-0.0386 0.0534,-0.0764 0.0801,-0.1135 0.0267,-0.037 0.0534,-0.0733 0.0801,-0.1087 0.0267,-0.0354 0.0533,-0.07 0.08,-0.1037 0.0267,-0.0337 0.0534,-0.0666 0.0801,-0.0985 0.0267,-0.032 0.0534,-0.063 0.0801,-0.0931 0.0267,-0.0302 0.0534,-0.0594 0.0801,-0.0876 0.0267,-0.0283 0.0534,-0.0555 0.0801,-0.0819 0.0267,-0.0263 0.0533,-0.0516 0.08,-0.0759 0.0267,-0.0243 0.0534,-0.0476 0.0801,-0.0699 0.0267,-0.0223 0.0534,-0.0435 0.0801,-0.0637 0.0267,-0.0201 0.0534,-0.0392 0.0801,-0.0573 0.0267,-0.018 0.0534,-0.035 0.0801,-0.0508 0.0267,-0.0158 0.0533,-0.0306 0.08,-0.0442 0.0267,-0.0136 0.0534,-0.0261 0.0801,-0.0374 0.0267,-0.0114 0.0534,-0.0216 0.0801,-0.0306 0.0267,-0.009 0.0534,-0.0169 0.0801,-0.0236 0.0267,-0.0067 0.0534,-0.0122 0.0801,-0.0165 0.0267,-0.0043 0.0534,-0.0074 0.08,-0.0093 0.0267,-0.0019 0.0534,-0.0026 0.0801,-0.0021 0.0267,5e-4 0.0534,0.0023 0.0801,0.0052 0.0267,0.003 0.0534,0.0072 0.0801,0.0127 0.0267,0.0054 0.0534,0.0121 0.0801,0.02 0.0267,0.008 0.0534,0.0172 0.08,0.0276 0.0267,0.0105 0.0534,0.0222 0.0801,0.0351 0.0267,0.013 0.0534,0.0272 0.0801,0.0427 0.0267,0.0155 0.0534,0.0322 0.0801,0.0502 0.0267,0.018 0.0534,0.0373 0.0801,0.0578 0.0267,0.0206 0.0534,0.0424 0.08,0.0654 0.0267,0.0231 0.0534,0.0474 0.0801,0.073 0.0267,0.0256 0.0534,0.0524 0.0801,0.0805 0.0267,0.0281 0.0534,0.0575 0.0801,0.088 0.0267,0.0306 0.0534,0.0625 0.0801,0.0955 0.0267,0.0331 0.0534,0.0674 0.08,0.103 0.0267,0.0355 0.0534,0.0723 0.0801,0.1102 0.0267,0.038 0.0534,0.0772 0.0801,0.1176 0.0267,0.0404 0.0534,0.0819 0.0801,0.1247 0.0267,0.0428 0.0534,0.0867 0.0801,0.1319 0.0267,0.0451 0.0534,0.0914 0.08,0.1388 0.0267,0.0474 0.0534,0.096 0.0801,0.1457 0.0267,0.0497 0.0534,0.1005 0.0801,0.1525 0.0267,0.0519 0.0534,0.105 0.0801,0.1591 0.0267,0.0541 0.0534,0.1093 0.0801,0.1655 0.0267,0.0563 0.0534,0.1136 0.08,0.1719 0.0267,0.0584 0.0534,0.1177 0.0801,0.1781 0.0267,0.0603 0.0534,0.1217 0.0801,0.184 0.0267,0.0623 0.0534,0.1256 0.0801,0.1898 0.0267,0.0642 0.0534,0.1294 0.0801,0.1954 0.0267,0.0661 0.0534,0.133 0.08,0.2008 0.0267,0.0678 0.0534,0.1365 0.0801,0.206 0.0267,0.0695 0.0534,0.1399 0.0801,0.211 0.0267,0.0711 0.0534,0.143 0.0801,0.2157 0.0267,0.0726 0.0534,0.146 0.0801,0.2201 0.0267,0.0741 0.0534,0.149 0.08,0.2244 0.0267,0.0755 0.0534,0.1517 0.0801,0.2284 0.0267,0.0768 0.0534,0.1542 0.0801,0.2322 0.0267,0.0779 0.0534,0.1565 0.0801,0.2356 0.0267,0.079 0.0534,0.1586 0.0801,0.2387 0.0267,0.0801 0.0534,0.1606 0.08,0.2416 0.0267,0.081 0.0534,0.1625 0.0801,0.2443 0.0267,0.0818 0.0534,0.164 0.0801,0.2465 0.0267,0.0825 0.0534,0.1654 0.0801,0.2485 0.0267,0.0831 0.0534,0.1665 0.0801,0.2502 0.0267,0.0836 0.0534,0.1675 0.08,0.2515 0.0267,0.084 0.0534,0.1682 0.0801,0.2525 0.0267,0.0844 0.0534,0.1688 0.0801,0.2533 0.0267,0.0845 0.0534,0.1691 0.0801,0.2536 0.0267,0.0846 0.0534,0.1692 0.0801,0.2537 0.0267,0.0845 0.0534,0.169 0.08,0.2533 0.0267,0.0844 0.0534,0.1686 0.0801,0.2527 0.0267,0.0841 0.0534,0.168 0.0801,0.2517 0.0267,0.0836 0.0534,0.1671 0.0801,0.2503 0.0267,0.0831 0.0534,0.166 0.0801,0.2486 0.0267,0.0825 0.0534,0.1647 0.08,0.2465 0.0267,0.0818 0.0534,0.1631 0.0801,0.2441 0.0267,0.0809 0.0534,0.1613 0.0801,0.2412 0.0267,0.08 0.0534,0.1594 0.0801,0.2382 0.0267,0.0788 0.0534,0.157 0.0801,0.2346 0.0267,0.0776 0.0534,0.1545 0.08,0.2307 0.0267,0.0762 0.0534,0.1518 0.0801,0.2265 0.0267,0.0747 0.0534,0.1487 0.0801,0.2219 0.0267,0.0731 0.0534,0.1455 0.0801,0.2169 0.0267,0.0714 0.0534,0.142 0.0801,0.2116 0.0267,0.0696 0.0534,0.1382 0.08,0.2059 0.0267,0.0676 0.0534,0.1343 0.0801,0.1998 0.0267,0.0656 0.0534,0.1301 0.0801,0.1935 0.0267,0.0634 0.0534,0.1256 0.0801,0.1867 0.0267,0.0611 0.0534,0.121 0.0801,0.1796 0.0267,0.0587 0.0534,0.1161 0.08,0.1722 0.0267,0.0562 0.0534,0.111 0.0801,0.1645 0.0267,0.0535 0.0534,0.1056 0.0801,0.1563 0.0267,0.0507 0.0534,0.1 0.0801,0.1479 0.0267,0.0478 0.0534,0.0942 0.0801,0.1391 0.0267,0.0449 0.0534,0.0883 0.08,0.1301 0.0267,0.0418 0.0534,0.082 0.0801,0.1207 0.0267,0.0386 0.0534,0.0756 0.0801,0.1109 0.0267,0.0354 0.0534,0.0691 0.0801,0.101 0.0267,0.032 0.0534,0.0623 0.0801,0.0908 0.0267,0.0285 0.0534,0.0552 0.08,0.0801 0.0267,0.025 0.0534,0.0481 0.0801,0.0694 0.0267,0.0213 0.0534,0.0407 0.0801,0.0582 0.0267,0.0176 0.0534,0.0332 0.0801,0.0469 0.0267,0.0137 0.0534,0.0255 0.0801,0.0353 0.0267,0.0098 0.0534,0.0176 0.0801,0.0234 0.0266,0.0059 0.0533,0.0097 0.08,0.0114 0.0267,0.0018 0.0534,0.0015 0.0801,-9e-4 0.0267,-0.0024 0.0534,-0.0068 0.0801,-0.0134 0.0267,-0.0065 0.0534,-0.0152 0.0801,-0.0261 0.0267,-0.0108 0.0534,-0.0238 0.0801,-0.0389 0.0266,-0.0152 0.0533,-0.0325 0.08,-0.052 0.0267,-0.0195 0.0534,-0.0413 0.0801,-0.0652 0.0267,-0.024 0.0534,-0.0501 0.0801,-0.0786 0.0267,-0.0284 0.0534,-0.0591 0.0801,-0.092 0.0267,-0.033 0.0534,-0.0682 0.0801,-0.1057 0.0266,-0.0375 0.0533,-0.0773 0.08,-0.1194 0.0267,-0.0421 0.0534,-0.0866 0.0801,-0.1333 0.0267,-0.0467 0.0534,-0.0958 0.0801,-0.1472 0.0267,-0.0513 0.0534,-0.1051 0.0801,-0.1611 0.0267,-0.0561 0.0534,-0.1145 0.0801,-0.1753 0.0266,-0.0607 0.0533,-0.1238 0.08,-0.1893 0.0267,-0.0655 0.0534,-0.1333 0.0801,-0.2035 0.0267,-0.0701 0.0534,-0.1427 0.0801,-0.2176 0.0267,-0.0749 0.0534,-0.1522 0.0801,-0.2318 0.0267,-0.0796 0.0534,-0.1616 0.0801,-0.2459 0.0266,-0.0844 0.0533,-0.1711 0.08,-0.2601 0.0267,-0.0891 0.0534,-0.1805 0.0801,-0.2742 0.0267,-0.0938 0.0534,-0.1898 0.0801,-0.2883 0.0267,-0.0984 0.0534,-0.1991 0.0801,-0.3022 0.0267,-0.103 0.0534,-0.2084 0.0801,-0.3161 0.0266,-0.1077 0.0533,-0.2177 0.08,-0.33 0.0267,-0.1122 0.0534,-0.2268 0.0801,-0.3436 0.0267,-0.1168 0.0534,-0.2359 0.0801,-0.3572 0.0267,-0.1214 0.0534,-0.2449 0.0801,-0.3707 0.0267,-0.1258 0.0534,-0.2538 0.0801,-0.384 0.0266,-0.1302 0.0533,-0.2626 0.08,-0.3971 0.0267,-0.1346 0.0534,-0.2713 0.0801,-0.4101 0.0267,-0.1388 0.0534,-0.2798 0.0801,-0.4229 0.0267,-0.143 0.0534,-0.2882 0.0801,-0.4354 0.0267,-0.1472 0.0534,-0.2965 0.0801,-0.4477 0.0266,-0.1513 0.0533,-0.3046 0.08,-0.4599 0.0267,-0.1553 0.0534,-0.3125 0.0801,-0.4717 0.0267,-0.1592 0.0534,-0.3204 0.0801,-0.4834 0.0267,-0.163 0.0534,-0.3279 0.0801,-0.4947 0.0267,-0.1667 0.0534,-0.3353 0.0801,-0.5057 0.0266,-0.1704 0.0533,-0.3426 0.08,-0.5165 0.0267,-0.1739 0.0534,-0.3496 0.0801,-0.5269 0.0267,-0.1774 0.0534,-0.3564 0.0801,-0.5371 0.0267,-0.1807 0.0534,-0.363 0.0801,-0.5469 0.0267,-0.1838 0.0534,-0.3693 0.0801,-0.5563 0.0266,-0.1869 0.0533,-0.3754 0.08,-0.5654 0.0267,-0.1899 0.0534,-0.3813 0.0801,-0.5741 0.0267,-0.1928 0.0534,-0.387 0.0801,-0.5825 0.0267,-0.1955 0.0534,-0.3923 0.0801,-0.5904 0.0267,-0.1981 0.0534,-0.3975 0.0801,-0.598 0.0266,-0.2006 0.0533,-0.4023 0.08,-0.6052 0.0267,-0.2029 0.0534,-0.4069 0.0801,-0.6119 0.0267,-0.2051 0.0534,-0.4112 0.0801,-0.6182 0.0267,-0.2071 0.0534,-0.4152 0.0801,-0.6242 0.0267,-0.2089 0.0534,-0.4188 0.0801,-0.6295 0.0266,-0.2107 0.0533,-0.4223 0.08,-0.6346 0.0267,-0.2123 0.0534,-0.4253 0.0801,-0.639 0.0267,-0.2138 0.0534,-0.4282 0.0801,-0.6432 0.0267,-0.215 0.0534,-0.4306 0.0801,-0.6468 0.0267,-0.2161 0.0534,-0.4327 0.0801,-0.6498 0.0266,-0.2171 0.0533,-0.4347 0.08,-0.6526 0.0267,-0.2179 0.0534,-0.4361 0.0801,-0.6547 0.0267,-0.2185 0.0534,-0.4373 0.0801,-0.6563 0.0267,-0.219 0.0534,-0.4382 0.0801,-0.6576 0.0267,-0.2193 0.0534,-0.4387 0.0801,-0.6582 0.0266,-0.2194 0.0533,-0.4389 0.08,-0.6583 0.0267,-0.2195 0.0534,-0.4389 0.0801,-0.6581 0.0267,-0.2192 0.0534,-0.4383 0.0801,-0.6572 0.0267,-0.2189 0.0534,-0.4375 0.0801,-0.6558 0.0267,-0.2184 0.0534,-0.4364 0.0801,-0.654 0.0266,-0.2177 0.0533,-0.4349 0.08,-0.6516 0.0267,-0.2168 0.0534,-0.4331 0.0801,-0.6488 0.0267,-0.2157 0.0534,-0.4308 0.0801,-0.6453 0.0267,-0.2145 0.0534,-0.4283 0.0801,-0.6414 0.0267,-0.2131 0.0534,-0.4255 0.0801,-0.6371 0.0266,-0.2115 0.0533,-0.4222 0.08,-0.632 0.0267,-0.2099 0.0534,-0.4188 0.0801,-0.6267 0.0267,-0.2079 0.0534,-0.4149 0.0801,-0.6207 0.0267,-0.2059 0.0534,-0.4107 0.0801,-0.6143 0.0267,-0.2036 0.0534,-0.4061 0.0801,-0.6074 0.0267,-0.2012 0.0533,-0.4012 0.08,-0.5999 0.0267,-0.1987 0.0534,-0.396 0.0801,-0.592 0.0267,-0.196 0.0534,-0.3906 0.0801,-0.5836 0.0267,-0.1931 0.0534,-0.3847 0.0801,-0.5748 0.0267,-0.1901 0.0534,-0.3786 0.0801,-0.5654 0.0267,-0.1869 0.0533,-0.3721 0.08,-0.5556 0.0267,-0.1835 0.0534,-0.3653 0.0801,-0.5454 0.0267,-0.18 0.0534,-0.3582 0.0801,-0.5346 0.0267,-0.1764 0.0534,-0.3509 0.0801,-0.5235 0.0267,-0.1726 0.0534,-0.3432 0.0801,-0.5119 0.0267,-0.1686 0.0533,-0.3352 0.08,-0.4998 0.0267,-0.1646 0.0534,-0.3271 0.0801,-0.4875 0.0267,-0.1603 0.0534,-0.3185 0.0801,-0.4746 0.0267,-0.156 0.0534,-0.3098 0.0801,-0.4613 0.0267,-0.1516 0.0534,-0.3008 0.0801,-0.4478 0.0267,-0.1469 0.0533,-0.2915 0.08,-0.4337 0.0267,-0.1422 0.0534,-0.282 0.0801,-0.4194 0.0267,-0.1374 0.0534,-0.2723 0.0801,-0.4047 0.0267,-0.1324 0.0534,-0.2623 0.0801,-0.3896 0.0267,-0.1273 0.0534,-0.2521 0.0801,-0.3742 0.0267,-0.1222 0.0533,-0.2417 0.08,-0.3586 0.0267,-0.1168 0.0534,-0.231 0.0801,-0.3425 0.0267,-0.1115 0.0534,-0.2203 0.0801,-0.3263 0.0267,-0.106 0.0534,-0.2092 0.0801,-0.3097 0.0267,-0.1004 0.0534,-0.198 0.0801,-0.2928 0.0267,-0.0948 0.0533,-0.1867 0.08,-0.2758 0.0267,-0.0891 0.0534,-0.1752 0.0801,-0.2585 0.0267,-0.0832 0.0534,-0.1635 0.0801,-0.2409 0.0267,-0.0774 0.0534,-0.1518 0.0801,-0.2232 0.0267,-0.0714 0.0534,-0.1399 0.0801,-0.2053 0.0267,-0.0654 0.0533,-0.1278 0.08,-0.1872 0.0267,-0.0593 0.0534,-0.1156 0.0801,-0.1689 0.0267,-0.0532 0.0534,-0.1034 0.0801,-0.1505 0.0267,-0.0471 0.0534,-0.0911 0.0801,-0.132 0.0267,-0.0409 0.0534,-0.0787 0.0801,-0.1133 0.0267,-0.0347 0.0533,-0.0662 0.08,-0.0946 0.0267,-0.0284 0.0534,-0.0537 0.0801,-0.0758 0.0267,-0.0221 0.0534,-0.0411 0.0801,-0.0569 0.0267,-0.0158 0.0534,-0.0284 0.0801,-0.0379 0.0267,-0.0095 0.0534,-0.0159 0.0801,-0.019 0.0267,-0.0032 0.0533,-0.0032 0.08,0 0.0267,0.0031 0.0534,0.0095 0.0801,0.019 0.0267,0.0094 0.0534,0.0221 0.0801,0.0379 0.0267,0.0158 0.0534,0.0348 0.0801,0.0569 0.0267,0.0221 0.0534,0.0474 0.0801,0.0758 0.0267,0.0284 0.0533,0.0599 0.08,0.0946 0.0267,0.0346 0.0534,0.0724 0.0801,0.1133 0.0267,0.0409 0.0534,0.0849 0.0801,0.132 0.0267,0.0471 0.0534,0.0973 0.0801,0.1505 0.0267,0.0533 0.0534,0.1096 0.0801,0.1689 0.0267,0.0594 0.0533,0.1218 0.08,0.1872 0.0267,0.0654 0.0534,0.1339 0.0801,0.2053 0.0267,0.0714 0.0534,0.1458 0.0801,0.2232 0.0267,0.0774 0.0534,0.1577 0.0801,0.2409 0.0267,0.0833 0.0534,0.1694 0.0801,0.2585 0.0267,0.0891 0.0533,0.181 0.08,0.2758 0.0267,0.0948 0.0534,0.1924 0.0801,0.2928 0.0267,0.1005 0.0534,0.2037 0.0801,0.3097 0.0267,0.106 0.0534,0.2148 0.0801,0.3263 0.0267,0.1115 0.0534,0.2257 0.0801,0.3425 0.0267,0.1169 0.0533,0.2364 0.08,0.3586 0.0267,0.1221 0.0534,0.2469 0.0801,0.3742 0.0267,0.1273 0.0534,0.2572 0.0801,0.3896 0.0267,0.1324 0.0534,0.2673 0.0801,0.4047 0.0267,0.1374 0.0534,0.2772 0.0801,0.4194 0.0267,0.1422 0.0533,0.2868 0.08,0.4337 0.0267,0.147 0.0534,0.2962 0.0801,0.4478 0.0267,0.1515 0.0534,0.3053 0.0801,0.4613 0.0267,0.1561 0.0534,0.3143 0.0801,0.4746 0.0267,0.1604 0.0534,0.3229 0.0801,0.4875 0.0267,0.1645 0.0533,0.3312 0.08,0.4998 0.0267,0.1687 0.0534,0.3393 0.0801,0.5119 0.0267,0.1726 0.0534,0.3471 0.0801,0.5235 0.0267,0.1764 0.0534,0.3546 0.0801,0.5346 0.0267,0.18 0.0534,0.3619 0.0801,0.5454 0.0267,0.1835 0.0533,0.3687 0.08,0.5556 0.0267,0.1868 0.0534,0.3753 0.0801,0.5654 0.0267,0.19 0.0534,0.3817 0.0801,0.5748 0.0267,0.193 0.0534,0.3876 0.0801,0.5836 0.0267,0.1959 0.0534,0.3933 0.0801,0.592 0.0267,0.1987 0.0533,0.3987 0.08,0.5999 0.0267,0.2013 0.0534,0.4038 0.0801,0.6074 0.0267,0.2036 0.0534,0.4084 0.0801,0.6143 0.0267,0.2058 0.0534,0.4128 0.0801,0.6207 0.0267,0.2079 0.0534,0.4168 0.0801,0.6267 0.0267,0.2098 0.0534,0.4205 0.08,0.632 0.0267,0.2116 0.0534,0.424 0.0801,0.6371 0.0267,0.2131 0.0534,0.4269 0.0801,0.6414 0.0267,0.2145 0.0534,0.4296 0.0801,0.6453 0.0267,0.2157 0.0534,0.432 0.0801,0.6488 0.0267,0.2167 0.0534,0.4339 0.08,0.6516 0.0267,0.2176 0.0534,0.4356 0.0801,0.654 0.0267,0.2183 0.0534,0.4369 0.0801,0.6558 0.0267,0.2189 0.0534,0.438 0.0801,0.6572 0.0267,0.2192 0.0534,0.4386 0.0801,0.6581 0.0267,0.2194 0.0534,0.4389 0.08,0.6583 0.0267,0.2195 0.0534,0.4389 0.0801,0.6582 0.0267,0.2194 0.0534,0.4386 0.0801,0.6576 0.0267,0.219 0.0534,0.4378 0.0801,0.6563 0.0267,0.2186 0.0534,0.4368 0.0801,0.6547 0.0267,0.2179 0.0534,0.4355 0.08,0.6526 0.0267,0.2171 0.0534,0.4337 0.0801,0.6498 0.0267,0.2162 0.0534,0.4318 0.0801,0.6468 0.0267,0.215 0.0534,0.4294 0.0801,0.6432 0.0267,0.2137 0.0534,0.4267 0.0801,0.639 0.0267,0.2123 0.0534,0.4239 0.08,0.6346 0.0267,0.2107 0.0534,0.4206 0.0801,0.6295 0.0267,0.209 0.0534,0.4171 0.0801,0.6242 0.0267,0.207 0.0534,0.4131 0.0801,0.6182 0.0267,0.205 0.0534,0.409 0.0801,0.6119 0.0267,0.2029 0.0534,0.4046 0.08,0.6052 0.0267,0.2005 0.0534,0.3999 0.0801,0.598 0.0267,0.1981 0.0534,0.3949 0.0801,0.5904 0.0267,0.1955 0.0534,0.3897 0.0801,0.5825 0.0267,0.1928 0.0534,0.3842 0.0801,0.5741 0.0267,0.19 0.0534,0.3784 0.08,0.5654 0.0267,0.187 0.0534,0.3724 0.0801,0.5563 0.0267,0.1839 0.0534,0.3662 0.0801,0.5469 0.0267,0.1807 0.0534,0.3597 0.0801,0.5371 0.0267,0.1773 0.0534,0.353 0.0801,0.5269 0.0267,0.1739 0.0534,0.3461 0.08,0.5165 0.0267,0.1704 0.0534,0.339 0.0801,0.5057 0.0267,0.1668 0.0534,0.3317 0.0801,0.4947 0.0267,0.163 0.0534,0.3242 0.0801,0.4834 0.0267,0.1592 0.0534,0.3164 0.0801,0.4717 0.0267,0.1553 0.0534,0.3086 0.08,0.4599 0.0267,0.1513 0.0534,0.3005 0.0801,0.4477 0.0267,0.1472 0.0534,0.2924 0.0801,0.4354 0.0267,0.1431 0.0534,0.2841 0.0801,0.4229 0.0267,0.1388 0.0534,0.2755 0.0801,0.4101 0.0267,0.1345 0.0534,0.2669 0.08,0.3971 0.0267,0.1302 0.0534,0.2582 0.0801,0.384 0.0267,0.1258 0.0534,0.2493 0.0801,0.3707 0.0267,0.1213 0.0534,0.2404 0.0801,0.3572 0.0267,0.1168 0.0534,0.2314 0.0801,0.3436 0.0267,0.1123 0.0534,0.2223 0.08,0.33 0.0267,0.1077 0.0534,0.2131 0.0801,0.3161 0.0267,0.1031 0.0534,0.2038 0.0801,0.3022 0.0267,0.0985 0.0534,0.1945 0.0801,0.2883 0.0267,0.0937 0.0534,0.1851 0.0801,0.2742 0.0267,0.089 0.0534,0.1757 0.08,0.2601 0.0267,0.0843 0.0534,0.1663 0.0801,0.2459 0.0267,0.0796 0.0534,0.1569 0.0801,0.2318 0.0267,0.0749 0.0534,0.1475 0.0801,0.2176 0.0267,0.0702 0.0534,0.138 0.0801,0.2035 0.0267,0.0655 0.0534,0.1286 0.08,0.1893 0.0267,0.0608 0.0534,0.1192 0.0801,0.1753 0.0267,0.056 0.0534,0.1098 0.0801,0.1611 0.0267,0.0514 0.0534,0.1005 0.0801,0.1472 0.0267,0.0468 0.0534,0.0912 0.0801,0.1333 0.0267,0.0421 0.0534,0.0819 0.08,0.1194 0.0267,0.0375 0.0534,0.0727 0.0801,0.1057 0.0267,0.0329 0.0534,0.0636 0.0801,0.092 0.0267,0.0285 0.0534,0.0546 0.0801,0.0786 0.0267,0.0239 0.0534,0.0457 0.0801,0.0652 0.0267,0.0195 0.0534,0.0368 0.08,0.052 0.0267,0.0151 0.0534,0.0281 0.0801,0.0389 0.0267,0.0109 0.0534,0.0195 0.0801,0.0261 0.0267,0.0066 0.0534,0.011 0.0801,0.0134 0.0267,0.0024 0.0534,0.0027 0.0801,9e-4 0.0267,-0.0017 0.0534,-0.0056 0.08,-0.0114 0.0267,-0.0058 0.0534,-0.0136 0.0801,-0.0234 0.0267,-0.0098 0.0534,-0.0216 0.0801,-0.0353 0.0267,-0.0137 0.0534,-0.0294 0.0801,-0.0469 0.0267,-0.0175 0.0534,-0.0369 0.0801,-0.0582 0.0267,-0.0213 0.0534,-0.0444 0.0801,-0.0694 0.0266,-0.0249 0.0533,-0.0516 0.08,-0.0801 0.0267,-0.0285 0.0534,-0.0588 0.0801,-0.0908 0.0267,-0.0319 0.0534,-0.0656 0.0801,-0.101 0.0267,-0.0353 0.0534,-0.0723 0.0801,-0.1109 0.0267,-0.0387 0.0534,-0.0789 0.0801,-0.1207 0.0266,-0.0418 0.0533,-0.0852 0.08,-0.1301 0.0267,-0.0449 0.0534,-0.0913 0.0801,-0.1391 0.0267,-0.0479 0.0534,-0.0972 0.0801,-0.1479 0.0267,-0.0507 0.0534,-0.1028 0.0801,-0.1563 0.0267,-0.0535 0.0534,-0.1083 0.0801,-0.1645 0.0266,-0.0561 0.0533,-0.1135 0.08,-0.1722 0.0267,-0.0586 0.0534,-0.1185 0.0801,-0.1796 0.0267,-0.0611 0.0534,-0.1233 0.0801,-0.1867 0.0267,-0.0634 0.0534,-0.1279 0.0801,-0.1935 0.0267,-0.0655 0.0534,-0.1322 0.0801,-0.1998 0.0266,-0.0677 0.0533,-0.1363 0.08,-0.2059 0.0267,-0.0696 0.0534,-0.1402 0.0801,-0.2116 0.0267,-0.0714 0.0534,-0.1438 0.0801,-0.2169 0.0267,-0.0732 0.0534,-0.1472 0.0801,-0.2219 0.0267,-0.0747 0.0534,-0.1503 0.0801,-0.2265 0.0266,-0.0762 0.0533,-0.1531 0.08,-0.2307 0.0267,-0.0776 0.0534,-0.1558 0.0801,-0.2346 0.0267,-0.0788 0.0534,-0.1582 0.0801,-0.2382 0.0267,-0.0799 0.0534,-0.1603 0.0801,-0.2412 0.0267,-0.081 0.0534,-0.1623 0.0801,-0.2441 0.0266,-0.0818 0.0533,-0.164 0.08,-0.2465 0.0267,-0.0826 0.0534,-0.1655 0.0801,-0.2486 0.0267,-0.0832 0.0534,-0.1667 0.0801,-0.2503 0.0267,-0.0837 0.0534,-0.1676 0.0801,-0.2517 0.0267,-0.0841 0.0534,-0.1683 0.0801,-0.2527 0.0266,-0.0843 0.0533,-0.1688 0.08,-0.2533 0.0267,-0.0845 0.0534,-0.1691 0.0801,-0.2537 0.0267,-0.0845 0.0534,-0.1691 0.0801,-0.2536 0.0267,-0.0845 0.0534,-0.1689 0.0801,-0.2533 0.0267,-0.0843 0.0534,-0.1685 0.0801,-0.2525 0.0266,-0.084 0.0533,-0.1679 0.08,-0.2515 0.0267,-0.0837 0.0534,-0.1671 0.0801,-0.2502 0.0267,-0.0832 0.0534,-0.166 0.0801,-0.2485 0.0267,-0.0825 0.0534,-0.1647 0.0801,-0.2465 0.0267,-0.0818 0.0534,-0.1633 0.0801,-0.2443 0.0266,-0.081 0.0533,-0.1615 0.08,-0.2416 0.0267,-0.0801 0.0534,-0.1597 0.0801,-0.2387 0.0267,-0.0791 0.0534,-0.1577 0.0801,-0.2356 0.0267,-0.078 0.0534,-0.1554 0.0801,-0.2322 0.0267,-0.0767 0.0534,-0.1529 0.0801,-0.2284 0.0266,-0.0754 0.0533,-0.1503 0.08,-0.2244 0.0267,-0.0741 0.0534,-0.1475 0.0801,-0.2201 0.0267,-0.0727 0.0534,-0.1446 0.0801,-0.2157 0.0267,-0.0711 0.0534,-0.1415 0.0801,-0.211 0.0267,-0.0695 0.0534,-0.1382 0.0801,-0.206 0.0266,-0.0678 0.0533,-0.1347 0.08,-0.2008 0.0267,-0.066 0.0534,-0.1312 0.0801,-0.1954 0.0267,-0.0642 0.0534,-0.1275 0.0801,-0.1898 0.0267,-0.0623 0.0534,-0.1237 0.0801,-0.184 0.0267,-0.0604 0.0534,-0.1197 0.0801,-0.1781 0.0266,-0.0583 0.0533,-0.1156 0.08,-0.1719 0.0267,-0.0562 0.0534,-0.1114 0.0801,-0.1655 0.0267,-0.0541 0.0534,-0.1072 0.0801,-0.1591 0.0267,-0.052 0.0534,-0.1028 0.0801,-0.1525 0.0267,-0.0497 0.0534,-0.0983 0.0801,-0.1457 0.0266,-0.0474 0.0533,-0.0937 0.08,-0.1388 0.0267,-0.0452 0.0534,-0.0891 0.0801,-0.1319 0.0267,-0.0428 0.0534,-0.0843 0.0801,-0.1247 0.0267,-0.0404 0.0534,-0.0796 0.0801,-0.1176 0.0267,-0.038 0.0534,-0.0747 0.0801,-0.1102 0.0266,-0.0356 0.0533,-0.0699 0.08,-0.103 0.0267,-0.033 0.0534,-0.0649 0.0801,-0.0955 0.0267,-0.0305 0.0534,-0.0599 0.0801,-0.088 0.0267,-0.0281 0.0534,-0.0549 0.0801,-0.0805 0.0267,-0.0256 0.0534,-0.0499 0.0801,-0.073 0.0266,-0.023 0.0533,-0.0448 0.08,-0.0654 0.0267,-0.0205 0.0534,-0.0398 0.0801,-0.0578 0.0267,-0.018 0.0534,-0.0347 0.0801,-0.0502 0.0267,-0.0155 0.0534,-0.0297 0.0801,-0.0427 0.0267,-0.0129 0.0534,-0.0246 0.0801,-0.0351 0.0266,-0.0104 0.0533,-0.0196 0.08,-0.0276 0.0267,-0.0079 0.0534,-0.0146 0.0801,-0.02 0.0267,-0.0055 0.0534,-0.0097 0.0801,-0.0127 0.0267,-0.003 0.0534,-0.0047 0.0801,-0.0052 0.0267,-5e-4 0.0534,2e-4 0.0801,0.0021 0.0266,0.0019 0.0533,0.005 0.08,0.0093 0.0267,0.0043 0.0534,0.0098 0.0801,0.0165 0.0267,0.0067 0.0534,0.0146 0.0801,0.0236 0.0267,0.009 0.0534,0.0192 0.0801,0.0306 0.0267,0.0113 0.0534,0.0238 0.0801,0.0374 0.0267,0.0136 0.0533,0.0284 0.08,0.0442 0.0267,0.0158 0.0534,0.0328 0.0801,0.0508 0.0267,0.0181 0.0534,0.0372 0.0801,0.0573 0.0267,0.0202 0.0534,0.0414 0.0801,0.0637 0.0267,0.0223 0.0534,0.0456 0.0801,0.0699 0.0267,0.0243 0.0533,0.0496 0.08,0.0759 0.0267,0.0263 0.0534,0.0536 0.0801,0.0819 0.0267,0.0282 0.0534,0.0574 0.0801,0.0876 0.0267,0.0301 0.0534,0.0611 0.0801,0.0931 0.0267,0.0319 0.0534,0.0648 0.0801,0.0985 0.0267,0.0337 0.0533,0.0683 0.08,0.1037 0.0267,0.0354 0.0534,0.0717 0.0801,0.1087 0.0267,0.037 0.0534,0.0749 0.0801,0.1135 0.0267,0.0386 0.0534,0.078 0.0801,0.1181 0.0267,0.0402 0.0534,0.081 0.0801,0.1226 0.0267,0.0415 0.0533,0.0838 0.08,0.1267 0.0267,0.0429 0.0534,0.0865 0.0801,0.1308 0.0267,0.0442 0.0534,0.089 0.0801,0.1344 0.0267,0.0455 0.0534,0.0915 0.0801,0.1381 0.0267,0.0466 0.0534,0.0937 0.0801,0.1414 0.0267,0.0476 0.0533,0.0958 0.08,0.1445 0.0267,0.0486 0.0534,0.0978 0.0801,0.1474 0.0267,0.0495 0.0534,0.0996 0.0801,0.15 0.0267,0.0504 0.0534,0.1012 0.0801,0.1524 0.0267,0.0512 0.0534,0.1028 0.0801,0.1547 0.0267,0.0519 0.0533,0.1041 0.08,0.1566 0.0267,0.0525 0.0534,0.1053 0.0801,0.1583 0.0267,0.0531 0.0534,0.1064 0.0801,0.1599 0.0267,0.0535 0.0534,0.1072 0.0801,0.1611 0.0267,0.0539 0.0534,0.1079 0.0801,0.1621 0.0267,0.0542 0.0533,0.1085 0.08,0.1629 0.0267,0.0544 0.0534,0.1089 0.0801,0.1635 0.0267,0.0545 0.0534,0.1092 0.0801,0.1638 0.0267,0.0546 0.0534,0.1093 0.0801,0.1639 0.0267,0.0546 0.0534,0.1093 0.0801,0.1638 0.0267,0.0546 0.0533,0.109 0.08,0.1634 0.0267,0.0544 0.0534,0.1087 0.0801,0.1629 0.0267,0.0542 0.0534,0.1082 0.0801,0.1621 0.0267,0.0538 0.0534,0.1075 0.0801,0.161 0.0267,0.0535 0.0534,0.1068 0.0801,0.1598 0.0267,0.0531 0.0533,0.1059 0.08,0.1584 0.0267,0.0526 0.0534,0.1048 0.0801,0.1568 0.0267,0.0519 0.0534,0.1035 0.0801,0.1548 0.0267,0.0513 0.0534,0.1023 0.0801,0.1529 0.0267,0.0505 0.0534,0.1008 0.0801,0.1505 0.0267,0.0498 0.0533,0.0992 0.08,0.1482 0.0267,0.0489 0.0534,0.0974 0.0801,0.1455 0.0267,0.048 0.0534,0.0956 0.0801,0.1427 0.0267,0.0471 0.0534,0.0937 0.0801,0.1397 0.0267,0.0461 0.0534,0.0916 0.0801,0.1366 0.0267,0.0449 0.0533,0.0894 0.08,0.1332 0.0267,0.0438 0.0534,0.0871 0.0801,0.1298 0.0267,0.0426 0.0534,0.0847 0.0801,0.1261 0.0267,0.0414 0.0534,0.0822 0.0801,0.1223 0.0267,0.0401 0.0534,0.0796 0.0801,0.1184 0.0267,0.0388 0.0533,0.0769 0.08,0.1144 0.0267,0.0374 0.0534,0.0741 0.0801,0.1101 0.0267,0.036 0.0534,0.0713 0.0801,0.1059 0.0267,0.0345 0.0534,0.0684 0.0801,0.1014 0.0267,0.0331 0.0534,0.0654 0.0801,0.0969 0.0267,0.0315 0.0533,0.0623 0.08,0.0923 0.0267,0.0299 0.0534,0.0591 0.0801,0.0875 0.0267,0.0284 0.0534,0.0559 0.0801,0.0827 0.0267,0.0268 0.0534,0.0527 0.0801,0.0778 0.0267,0.0251 0.0534,0.0494 0.0801,0.0728 0.0267,0.0235 0.0533,0.0461 0.08,0.0679 0.0267,0.0217 0.0534,0.0426 0.0801,0.0627 0.0267,0.02 0.0534,0.0392 0.0801,0.0575 0.0267,0.0184 0.0534,0.0358 0.0801,0.0524 0.0267,0.0166 0.0534,0.0323 0.0801,0.0472 0.0267,0.0148 0.0533,0.0288 0.08,0.0419 0.0267,0.0131 0.0534,0.0253 0.0801,0.0366 0.0267,0.0114 0.0534,0.0218 0.0801,0.0314 0.0267,0.0096 0.0534,0.0182 0.0801,0.026 0.0267,0.0079 0.0534,0.0148 0.0801,0.0208 0.0267,0.0061 0.0533,0.0112 0.08,0.0155 0.0267,0.0043 0.0534,0.0077 0.0801,0.0102 0.0267,0.0025 0.0534,0.0042 0.0801,0.005 0.0267,8e-4 0.0534,7e-4 0.0801,-3e-4 0.0267,-9e-4 0.0534,-0.0027 0.0801,-0.0054 0.0267,-0.0027 0.0533,-0.0062 0.08,-0.0106 0.0267,-0.0043 0.0534,-0.0096 0.0801,-0.0156 0.0267,-0.0061 0.0534,-0.013 0.0801,-0.0207 0.0267,-0.0077 0.0534,-0.0163 0.0801,-0.0257 0.0267,-0.0093 0.0534,-0.0195 0.0801,-0.0305 0.0267,-0.011 0.0534,-0.0228 0.08,-0.0354 0.0267,-0.0126 0.0534,-0.026 0.0801,-0.0401 0.0267,-0.0142 0.0534,-0.0291 0.0801,-0.0448 0.0267,-0.0157 0.0534,-0.0321 0.0801,-0.0493 0.0267,-0.0172 0.0534,-0.0352 0.0801,-0.0538 0.0267,-0.0187 0.0534,-0.0381 0.08,-0.0582 0.0267,-0.0201 0.0534,-0.0409 0.0801,-0.0623 0.0267,-0.0215 0.0534,-0.0437 0.0801,-0.0666 0.0267,-0.0228 0.0534,-0.0463 0.0801,-0.0705 0.0267,-0.0242 0.0534,-0.049 0.0801,-0.0744 0.0267,-0.0255 0.0534,-0.0515 0.08,-0.0782 0.0267,-0.0267 0.0534,-0.0539 0.0801,-0.0818 0.0267,-0.0278 0.0534,-0.0563 0.0801,-0.0853 0.0267,-0.0289 0.0534,-0.0585 0.0801,-0.0886 0.0267,-0.0301 0.0534,-0.0607 0.0801,-0.0918 0.0267,-0.0311 0.0534,-0.0627 0.08,-0.0948 0.0267,-0.0322 0.0534,-0.0648 0.0801,-0.0978 0.0267,-0.0331 0.0534,-0.0666 0.0801,-0.1005 0.0267,-0.0339 0.0534,-0.0683 0.0801,-0.1031 0.0267,-0.0348 0.0534,-0.0699 0.0801,-0.1055 0.0267,-0.0355 0.0534,-0.0715 0.08,-0.1078 0.0267,-0.0362 0.0534,-0.0729 0.0801,-0.1098 0.0267,-0.037 0.0534,-0.0742 0.0801,-0.1118 0.0267,-0.0375 0.0534,-0.0754 0.0801,-0.1135 0.0267,-0.0381 0.0534,-0.0765 0.0801,-0.1152 0.0267,-0.0386 0.0534,-0.0774 0.08,-0.1165 0.0267,-0.0391 0.0534,-0.0783 0.0801,-0.1178 0.0267,-0.0394 0.0534,-0.0791 0.0801,-0.1188 0.0267,-0.0398 0.0534,-0.0798 0.0801,-0.1198 0.0267,-0.0401 0.0534,-0.0802 0.0801,-0.1205 0.0267,-0.0403 0.0534,-0.0806 0.08,-0.121 0.0267,-0.0405 0.0534,-0.0809 0.0801,-0.1215 0.0267,-0.0405 0.0534,-0.081 0.0801,-0.1216 0.0267,-0.0405 0.0534,-0.0811 0.0801,-0.1216 0.0267,-0.0406 0.0534,-0.0811 0.0801,-0.1216 0.0267,-0.0404 0.0534,-0.0809 0.08,-0.1212 0.0267,-0.0403 0.0534,-0.0806 0.0801,-0.1208 0.0267,-0.0401 0.0534,-0.0802 0.0801,-0.1201 0.0267,-0.0399 0.0534,-0.0797 0.0801,-0.1193 0.0267,-0.0396 0.0534,-0.0791 0.0801,-0.1183 0.0267,-0.0393 0.0534,-0.0784 0.08,-0.1172 0.0267,-0.0389 0.0534,-0.0776 0.0801,-0.116 0.0267,-0.0384 0.0534,-0.0766 0.0801,-0.1145 0.0267,-0.0379 0.0534,-0.0755 0.0801,-0.1129 0.0267,-0.0373 0.0534,-0.0744 0.0801,-0.1111 0.0267,-0.0368 0.0534,-0.0732 0.08,-0.1093 0.0267,-0.0361 0.0534,-0.0719 0.0801,-0.1073 0.0267,-0.0354 0.0534,-0.0704 0.0801,-0.1051 0.0267,-0.0346 0.0534,-0.0689 0.0801,-0.1027 0.0267,-0.0339 0.0534,-0.0674 0.0801,-0.1004 0.0267,-0.033 0.0534,-0.0656 0.08,-0.0978 0.0267,-0.0322 0.0534,-0.0639 0.0801,-0.0951 0.0267,-0.0313 0.0534,-0.062 0.0801,-0.0923 0.0267,-0.0303 0.0534,-0.0601 0.0801,-0.0894 0.0267,-0.0293 0.0534,-0.0581 0.0801,-0.0864 0.0267,-0.0283 0.0534,-0.056 0.08,-0.0833 0.0267,-0.0272 0.0534,-0.0539 0.0801,-0.08 0.0267,-0.0261 0.0534,-0.0517 0.0801,-0.0767 0.0267,-0.025 0.0534,-0.0495 0.0801,-0.0733 0.0267,-0.0239 0.0534,-0.0472 0.0801,-0.0698 0.0267,-0.0227 0.0534,-0.0448 0.08,-0.0663 0.0267,-0.0215 0.0534,-0.0423 0.0801,-0.0626 0.0267,-0.0202 0.0534,-0.0399 0.0801,-0.0589 0.0267,-0.019 0.0534,-0.0373 0.0801,-0.0551 0.0267,-0.0177 0.0534,-0.0348 0.0801,-0.0513 0.0267,-0.0164 0.0534,-0.0322 0.08,-0.0474 0.0267,-0.0151 0.0534,-0.0296 0.0801,-0.0435 0.0267,-0.0138 0.0534,-0.027 0.0801,-0.0395 0.0267,-0.0125 0.0534,-0.0243 0.0801,-0.0355 0.0267,-0.0112 0.0534,-0.0217 0.0801,-0.0315 0.0267,-0.0098 0.0534,-0.019 0.08,-0.0275 0.0267,-0.0084 0.0534,-0.0162 0.0801,-0.0233 0.0267,-0.0072 0.0534,-0.0136 0.0801,-0.0194 0.0267,-0.0057 0.0534,-0.0108 0.0801,-0.0152 0.0267,-0.0044 0.0534,-0.0081 0.0801,-0.0111 0.0267,-0.0031 0.0534,-0.0054 0.08,-0.0071 0.0267,-0.0017 0.0534,-0.0027 0.0801,-0.003 0.0267,-3e-4 0.0534,0 0.0801,0.001 0.0267,10e-4 0.0534,0.0027 0.0801,0.0051 0.0267,0.0023 0.0534,0.0053 0.0801,0.009 0.0267,0.0037 0.0534,0.008 0.0801,0.013 0.0266,0.005 0.0533,0.0106 0.08,0.0169 0.0267,0.0063 0.0534,0.0133 0.0801,0.0208 0.0267,0.0076 0.0534,0.0158 0.0801,0.0247 0.0267,0.0088 0.0534,0.0183 0.0801,0.0283 0.0267,0.0101 0.0534,0.0208 0.0801,0.0322 0.0266,0.0113 0.0533,0.0232 0.08,0.0357 0.0267,0.0125 0.0534,0.0256 0.0801,0.0393 0.0267,0.0137 0.0534,0.028 0.0801,0.0429 0.0267,0.0148 0.0534,0.0302 0.0801,0.0462 0.0267,0.016 0.0534,0.0325 0.0801,0.0496 0.0266,0.0171 0.0533,0.0347 0.08,0.0529 0.0267,0.0181 0.0534,0.0368 0.0801,0.056 0.0267,0.0191 0.0534,0.0388 0.0801,0.059 0.0267,0.0202 0.0534,0.0409 0.0801,0.0621 0.0267,0.0212 0.0534,0.0428 0.0801,0.0649 0.0266,0.0221 0.0533,0.0447 0.08,0.0677 0.0267,0.023 0.0534,0.0464 0.0801,0.0703 0.0267,0.0239 0.0534,0.0482 0.0801,0.0729 0.0267,0.0247 0.0534,0.0498 0.0801,0.0753 0.0267,0.0255 0.0534,0.0513 0.0801,0.0776 0.0266,0.0262 0.0533,0.0528 0.08,0.0798 0.0267,0.0269 0.0534,0.0542 0.0801,0.0818 0.0267,0.0276 0.0534,0.0555 0.0801,0.0838 0.0267,0.0282 0.0534,0.0567 0.0801,0.0856 0.0267,0.0288 0.0534,0.0579 0.0801,0.0872 0.0266,0.0294 0.0533,0.059 0.08,0.0888 0.0267,0.0299 0.0534,0.06 0.0801,0.0903 0.0267,0.0303 0.0534,0.0608 0.0801,0.0915 0.0267,0.0307 0.0534,0.0616 0.0801,0.0926 0.0267,0.0311 0.0534,0.0623 0.0801,0.0937 0.0266,0.0314 0.0533,0.0629 0.08,0.0945 0.0267,0.0317 0.0534,0.0634 0.0801,0.0953 0.0267,0.0319 0.0534,0.0638 0.0801,0.0959 0.0267,0.032 0.0534,0.0641 0.0801,0.0963 0.0267,0.0322 0.0534,0.0644 0.0801,0.0966 0.0266,0.0323 0.0533,0.0646 0.08,0.0969 0.0267,0.0323 0.0534,0.0646 0.0801,0.0969 0.0267,0.0322 0.0534,0.0645 0.0801,0.0967 0.0267,0.0323 0.0534,0.0645 0.0801,0.0966 0.0267,0.0321 0.0534,0.0642 0.0801,0.0962 0.0266,0.032 0.0533,0.0639 0.08,0.0957 0.0267,0.0318 0.0534,0.0635 0.0801,0.0951 0.0267,0.0316 0.0534,0.063 0.0801,0.0943 0.0267,0.0313 0.0534,0.0625 0.0801,0.0934 0.0267,0.031 0.0534,0.0618 0.0801,0.0925 0.0266,0.0306 0.0533,0.061 0.08,0.0912 0.0267,0.0303 0.0534,0.0603 0.0801,0.0901 0.0267,0.0297 0.0534,0.0593 0.0801,0.0886 0.0267,0.0293 0.0534,0.0583 0.0801,0.0871 0.0267,0.0288 0.0534,0.0573 0.0801,0.0855 0.0266,0.0282 0.0533,0.0562 0.08,0.0838 0.0267,0.0276 0.0534,0.0549 0.0801,0.0819 0.0267,0.027 0.0534,0.0537 0.0801,0.08 0.0267,0.0263 0.0534,0.0523 0.0801,0.0779 0.0267,0.0257 0.0534,0.0509 0.0801,0.0758 0.0266,0.0249 0.0533,0.0494 0.08,0.0736 0.0267,0.0241 0.0534,0.0478 0.0801,0.0711 0.0267,0.0234 0.0534,0.0463 0.0801,0.0688 0.0267,0.0225 0.0534,0.0446 0.0801,0.0662 0.0267,0.0217 0.0534,0.0429 0.0801,0.0637 0.0266,0.0207 0.0533,0.0411 0.08,0.0609 0.0267,0.0199 0.0534,0.0393 0.0801,0.0582 0.0267,0.019 0.0534,0.0374 0.0801,0.0554 0.0267,0.018 0.0534,0.0355 0.0801,0.0525 0.0267,0.017 0.0534,0.0335 0.0801,0.0496 0.0266,0.016 0.0533,0.0315 0.08,0.0465 0.0267,0.015 0.0534,0.0295 0.0801,0.0435 0.0267,0.014 0.0534,0.0274 0.0801,0.0404 0.0267,0.0129 0.0534,0.0253 0.0801,0.0372 0.0267,0.0119 0.0534,0.0233 0.0801,0.0341 0.0266,0.0108 0.0533,0.0211 0.08,0.0308 0.0267,0.0098 0.0534,0.019 0.0801,0.0276 0.0267,0.0087 0.0534,0.0168 0.0801,0.0243 0.0267,0.0076 0.0534,0.0146 0.0801,0.021 0.0267,0.0065 0.0534,0.0124 0.0801,0.0178 0.0266,0.0053 0.0533,0.0101 0.08,0.0144 0.0267,0.0042 0.0534,0.0079 0.0801,0.011 0.0267,0.0032 0.0534,0.0058 0.0801,0.0078 0.0267,0.002 0.0534,0.0035 0.0801,0.0044 0.0267,9e-4 0.0534,0.0013 0.0801,0.0011 0.0266,-1e-4 0.0533,-9e-4 0.08,-0.0022 0.0267,-0.0012 0.0534,-0.0031 0.0801,-0.0054 0.0267,-0.0024 0.0534,-0.0053 0.0801,-0.0087 0.0267,-0.0035 0.0534,-0.0075 0.0801,-0.012 0.0267,-0.0045 0.0534,-0.0096 0.0801,-0.0152 0.0267,-0.0055 0.0533,-0.0117 0.08,-0.0183 0.0267,-0.0066 0.0534,-0.0138 0.0801,-0.0214 0.0267,-0.0077 0.0534,-0.0159 0.0801,-0.0246 0.0267,-0.0087 0.0534,-0.0179 0.0801,-0.0276 0.0267,-0.0096 0.0534,-0.0198 0.0801,-0.0305 0.0267,-0.0107 0.0533,-0.0219 0.08,-0.0335 0.0267,-0.0116 0.0534,-0.0238 0.0801,-0.0364 0.0267,-0.0125 0.0534,-0.0256 0.0801,-0.0391 0.0267,-0.0135 0.0534,-0.0275 0.0801,-0.0419 0.0267,-0.0144 0.0534,-0.0293 0.0801,-0.0446 0.0267,-0.0153 0.0533,-0.031 0.08,-0.0471 0.0267,-0.0162 0.0534,-0.0327 0.0801,-0.0497 0.0267,-0.017 0.0534,-0.0344 0.0801,-0.0521 0.0267,-0.0178 0.0534,-0.0359 0.0801,-0.0545 0.0267,-0.0185 0.0534,-0.0374 0.0801,-0.0567 0.0267,-0.0193 0.0533,-0.0389 0.08,-0.0589 0.0267,-0.02 0.0534,-0.0403 0.0801,-0.061 0.0267,-0.0206 0.0534,-0.0416 0.0801,-0.0629 0.0267,-0.0213 0.0534,-0.043 0.0801,-0.0649 0.0267,-0.0219 0.0534,-0.0441 0.0801,-0.0666 0.0267,-0.0225 0.0533,-0.0453 0.08,-0.0684 0.0267,-0.023 0.0534,-0.0463 0.0801,-0.0699 0.0267,-0.0236 0.0534,-0.0474 0.0801,-0.0714 0.0267,-0.024 0.0534,-0.0483 0.0801,-0.0728 0.0267,-0.0244 0.0534,-0.0491 0.0801,-0.074 0.0267,-0.0249 0.0533,-0.0499 0.08,-0.0752 0.0267,-0.0252 0.0534,-0.0507 0.0801,-0.0762 0.0267,-0.0256 0.0534,-0.0513 0.0801,-0.0772 0.0267,-0.0259 0.0534,-0.0519 0.0801,-0.078 0.0267,-0.0261 0.0534,-0.0523 0.0801,-0.0787 0.0267,-0.0263 0.0533,-0.0527 0.08,-0.0793 0.0267,-0.0265 0.0534,-0.0531 0.0801,-0.0797 0.0267,-0.0267 0.0534,-0.0534 0.0801,-0.0801 0.0267,-0.0268 0.0534,-0.0536 0.0801,-0.0804 0.0267,-0.0268 0.0534,-0.0537 0.0801,-0.0805 0.0267,-0.0269 0.0533,-0.0537 0.08,-0.0805 0.0267,-0.0269 0.0534,-0.0537 0.0801,-0.0805 0.0267,-0.0268 0.0534,-0.0535 0.0801,-0.0802 v 0"
       title="sin(x)/x"
       id="path3627" />
  </g>
</svg>
